<?xml version="1.0" encoding="UTF-8"?><svg id="a" xmlns="http://www.w3.org/2000/svg" viewBox="0 0 200 200"><defs><style>.b{fill:#343c43;}</style></defs><path class="b" d="M161.75,187.61H41.29c-15.1,0-27.38-12.28-27.38-27.38V39.77c0-15.1,12.28-27.38,27.38-27.38h120.46c15.1,0,27.38,12.28,27.38,27.38v120.46c0,15.1-12.28,27.38-27.38,27.38ZM41.29,28.95c-5.97,0-10.82,4.85-10.82,10.82v120.46c0,5.97,4.85,10.82,10.82,10.82h120.46c5.97,0,10.82-4.85,10.82-10.82V39.77c0-5.97-4.85-10.82-10.82-10.82H41.29Z"/><path class="b" d="M73.31,132.95c-1.69,0-3.4-.52-4.87-1.59l-27.3-19.9c-2.14-1.56-3.4-4.04-3.4-6.69s1.26-5.13,3.4-6.69l27.3-19.9c3.69-2.69,8.87-1.88,11.56,1.81,2.69,3.69,1.88,8.87-1.81,11.57l-18.12,13.22,18.12,13.22c3.69,2.69,4.5,7.87,1.81,11.56-1.62,2.22-4.14,3.4-6.69,3.4Z"/><path class="b" d="M127.34,132.95c-2.55,0-5.07-1.18-6.69-3.4-2.69-3.69-1.88-8.87,1.81-11.56l18.12-13.22-18.12-13.22c-3.69-2.69-4.5-7.87-1.81-11.57,2.69-3.69,7.87-4.5,11.56-1.81l27.3,19.9c2.14,1.56,3.4,4.04,3.4,6.69s-1.26,5.13-3.4,6.69l-27.3,19.9c-1.47,1.07-3.18,1.59-4.87,1.59Z"/><path class="b" d="M91.23,142.9c-.72,0-1.46-.1-2.19-.3-4.41-1.21-7-5.76-5.8-10.17l17.06-62.27c1.21-4.41,5.76-7,10.17-5.8,4.41,1.21,7,5.76,5.8,10.17l-17.06,62.27c-1.01,3.68-4.34,6.09-7.98,6.09Z"/></svg>