<svg id="Grupo_16" data-name="Grupo 16" xmlns="http://www.w3.org/2000/svg" width="30" height="30" viewBox="0 0 30 30">
  <path id="Trazado_27" data-name="Trazado 27" d="M503.751,1046.161H483.125a4.693,4.693,0,0,1-4.687-4.687v-20.625a4.693,4.693,0,0,1,4.687-4.687h20.625a4.693,4.693,0,0,1,4.687,4.687v20.625A4.693,4.693,0,0,1,503.751,1046.161ZM483.125,1019a1.855,1.855,0,0,0-1.853,1.853v20.625a1.855,1.855,0,0,0,1.853,1.853h20.625a1.855,1.855,0,0,0,1.853-1.853v-20.625a1.855,1.855,0,0,0-1.853-1.853Z" transform="translate(-478.438 -1016.161)" fill="#848484"/>
  <path id="Trazado_28" data-name="Trazado 28" d="M507.783,1088.218a1.463,1.463,0,0,1-.865-.282l-4.848-3.535a1.47,1.47,0,0,1,0-2.376l4.848-3.535a1.47,1.47,0,0,1,1.733,2.376l-3.219,2.348,3.219,2.347a1.47,1.47,0,0,1-.867,2.658Z" transform="translate(-497.682 -1067.331)" fill="#848484"/>
  <path id="Trazado_29" data-name="Trazado 29" d="M581.532,1088.218a1.47,1.47,0,0,1-.867-2.658l3.219-2.347-3.219-2.348a1.47,1.47,0,1,1,1.732-2.376l4.849,3.535a1.47,1.47,0,0,1,0,2.376l-4.849,3.535A1.465,1.465,0,0,1,581.532,1088.218Z" transform="translate(-561.634 -1067.331)" fill="#848484"/>
  <path id="Trazado_30" data-name="Trazado 30" d="M546.61,1079.927a1.452,1.452,0,0,1-1.4-1.834l2.99-10.912a1.451,1.451,0,1,1,2.8.767l-2.99,10.911A1.452,1.452,0,0,1,546.61,1079.927Z" transform="translate(-533.103 -1057.748)" fill="#848484"/>
</svg>
