<?xml version="1.0" encoding="utf-8"?>
<!-- Generator: Adobe Illustrator 25.4.1, SVG Export Plug-In . SVG Version: 6.00 Build 0)  -->
<svg version="1.1" id="Capa_1" xmlns="http://www.w3.org/2000/svg" xmlns:xlink="http://www.w3.org/1999/xlink" x="0px" y="0px"
	 viewBox="0 0 200 200" style="enable-background:new 0 0 200 200;" xml:space="preserve">
<style type="text/css">
	.st0{fill:#002D55;}
	.st1{fill:#13477B;}
	.st2{fill:#191A74;}
	.st3{fill:#00B6E6;}
	.st4{fill:#009DDE;}
	.st5{fill:#5CCAD3;}
	.st6{fill:#990045;}
	.st7{fill:#D4005A;}
	.st8{fill:#C3C3C3;}
	.st9{fill:#F2F2F2;}
	.st10{fill:#007377;}
	.st11{fill:url(#SVGID_1_);}
	.st12{fill:none;stroke:#C3C3C3;stroke-width:2;stroke-linecap:round;stroke-miterlimit:10;}
	.st13{fill:#FFFFFF;stroke:#C3C3C3;stroke-width:2;stroke-linecap:round;stroke-miterlimit:10;}
	.st14{fill:#FFFFFF;stroke:#002D55;stroke-width:5;stroke-miterlimit:10;}
	.st15{fill:url(#);}
	.st16{fill:#FFFFFF;stroke:#B3B3B3;stroke-width:5;stroke-miterlimit:10;}
	.st17{fill:#B3B3B3;}
	.st18{fill:#FFFFFF;}
	.st19{fill:none;stroke:#B3B3B3;stroke-width:8;stroke-miterlimit:10;}
	.st20{fill:none;stroke:#B3B3B3;stroke-width:8;stroke-linecap:round;stroke-miterlimit:10;}
	.st21{fill:none;stroke:#757575;stroke-width:16;stroke-linecap:round;stroke-linejoin:round;stroke-miterlimit:10;}
	.st22{fill:#757575;}
	.st23{fill:url(#SVGID_00000176747740940946836590000005091438439935124391_);}
	.st24{fill:url(#SVGID_00000146498110913029000120000006063541343518621078_);}
	.st25{fill:url(#SVGID_00000085947055070468713830000014064043764425965716_);}
	.st26{opacity:0.48;fill:#A8A8A8;}
	.st27{fill:url(#SVGID_00000030479971580858516910000006050907036644478887_);}
	.st28{fill:url(#SVGID_00000051344725954919698120000009509722168570888340_);}
	.st29{fill:url(#SVGID_00000091724522656316626520000017373576018924942215_);}
	.st30{fill:url(#SVGID_00000030479903571543131120000012241947186823122313_);}
	.st31{fill:url(#SVGID_00000133511147208978559530000004110844044830782850_);}
	.st32{fill:url(#SVGID_00000031916278724378864510000010837582115615436935_);}
	.st33{fill:url(#SVGID_00000137826963795562113120000008518127437163719611_);}
	.st34{fill:#D6D6D6;}
	.st35{fill:#656565;}
	.st36{fill:none;stroke:#000000;stroke-width:10;stroke-miterlimit:10;}
</style>
<path class="st17" d="M173.18,172.06H52.56c-13.07,0-23.7-10.63-23.7-23.7V27.74c0-13.07,10.63-23.71,23.7-23.71h120.62
	c13.07,0,23.7,10.63,23.7,23.71v120.62C196.89,161.43,186.25,172.06,173.18,172.06z M52.56,19.75c-4.4,0-7.98,3.58-7.98,7.98v120.62
	c0,4.4,3.58,7.98,7.98,7.98h120.62c4.4,0,7.98-3.58,7.98-7.98V27.74c0-4.4-3.58-7.98-7.98-7.98H52.56z"/>
<path class="st17" d="M147.44,197.81H26.82c-13.07,0-23.7-10.63-23.7-23.71V53.48c0-13.07,10.63-23.7,23.7-23.7
	c4.34,0,7.86,3.52,7.86,7.86s-3.52,7.86-7.86,7.86c-4.4,0-7.98,3.58-7.98,7.98V174.1c0,4.4,3.58,7.98,7.98,7.98h120.62
	c4.4,0,7.98-3.58,7.98-7.98c0-4.34,3.52-7.86,7.86-7.86c4.34,0,7.86,3.52,7.86,7.86C171.14,187.17,160.51,197.81,147.44,197.81z"/>
</svg>
