<svg id="Grupo_42" data-name="Grupo 42" xmlns="http://www.w3.org/2000/svg" width="30.016" height="30.016" viewBox="0 0 30.016 30.016">
  <g id="Grupo_17" data-name="Grupo 17" transform="translate(0 0)">
    <path id="Trazado_31" data-name="Trazado 31" d="M546.944,1264.483H524.3a4.7,4.7,0,0,1-4.69-4.69v-20.636a4.7,4.7,0,0,1,4.69-4.69h20.636a4.7,4.7,0,0,1,4.69,4.69,1.418,1.418,0,1,1-2.836,0,1.856,1.856,0,0,0-1.854-1.854H524.3a1.856,1.856,0,0,0-1.854,1.854v20.636a1.856,1.856,0,0,0,1.854,1.854h22.64a1.418,1.418,0,0,1,0,2.836Z" transform="translate(-519.615 -1234.467)" fill="#848484"/>
    <rect id="Rectángulo_85" data-name="Rectángulo 85" width="4.187" height="7.389" transform="translate(12.915 12.009)" fill="#848484"/>
    <circle id="Elipse_1" data-name="Elipse 1" cx="2.509" cy="2.509" r="2.509" transform="translate(12.499 6.249)" fill="#848484"/>
  </g>
  <path id="Trazado_32" data-name="Trazado 32" d="M524.3,1264.483a3.334,3.334,0,0,1-3.367-3.45,3.4,3.4,0,0,1,.84-2.273,3.326,3.326,0,0,1,2.527-1.072h20.636a1.856,1.856,0,0,0,1.854-1.854v-16.677a1.856,1.856,0,0,0-1.854-1.854H524.3a1.856,1.856,0,0,0-1.854,1.854v16.677a1.418,1.418,0,1,1-2.836,0v-16.677a4.7,4.7,0,0,1,4.69-4.69h20.636a4.7,4.7,0,0,1,4.69,4.69v16.677a4.7,4.7,0,0,1-4.69,4.69H524.3a.541.541,0,0,0-.413.126.59.59,0,0,0-.118.383.537.537,0,0,0,.531.614,1.418,1.418,0,0,1,0,2.836Z" transform="translate(-519.615 -1234.467)" fill="#848484"/>
</svg>
