<?xml version="1.0" encoding="UTF-8"?><svg id="a" xmlns="http://www.w3.org/2000/svg" viewBox="0 0 200 200"><defs><style>.b{fill:#13477b;}</style></defs><path class="b" d="M39.9,164.68h119.22c14.94,0,27.09-12.15,27.09-27.09V41.24c0-14.94-12.15-27.09-27.09-27.09H39.9c-14.94,0-27.09,12.15-27.09,27.09v119.22c0,14.94,12.15,27.09,27.09,27.09H170.7c4.52,0,8.19-3.67,8.19-8.19s-3.67-8.19-8.19-8.19H39.9c-2.77,0-3.07-2.48-3.07-3.55,0-.91,.26-1.74,.68-2.21,.43-.48,1.23-.73,2.38-.73Zm-10.71-13.43V41.24c0-5.91,4.8-10.71,10.71-10.71h119.22c5.91,0,10.71,4.8,10.71,10.71v96.35c0,5.91-4.8,10.71-10.71,10.71H39.9c-3.98,0-7.64,1.04-10.71,2.96Z"/><rect class="b" x="89.18" y="87.45" width="20.66" height="41.4"/><circle class="b" cx="99.51" cy="63.68" r="12.38"/></svg>