<?xml version="1.0" encoding="UTF-8"?><svg id="a" xmlns="http://www.w3.org/2000/svg" viewBox="0 0 200 200"><defs><style>.b{fill:#343c43;}</style></defs><path class="b" d="M187.53,52.66c-13.4-6.78-82.26-42.93-82.26-42.93-1.65-.87-3.46-1.31-5.27-1.31-1.81,0-3.62,.44-5.27,1.31,0,0-68.86,36.15-82.26,42.93-7.67,3.88-10.49,10.37-10.49,18.96,0,11.68,11.68,15.3,11.68,21.44v68.33c0,16.65,13.55,30.2,30.2,30.2h112.28c16.65,0,30.2-13.55,30.2-30.2V93.05c0-6.14,11.68-9.76,11.68-21.44,0-8.59-2.82-15.08-10.49-18.96Zm-17.57,37.56v71.17c0,7.62-6.2,13.82-13.82,13.82h-38.86v-59.35h-34.55v59.35H43.86c-7.62,0-13.82-6.2-13.82-13.82V90.21c0-11.63-8.69-12.42-8.69-18.79,0-3.11,1.42-5.21,4.38-6.79,10.99-5.85,73.77-38.91,74.26-39.17,.5,.26,63.27,33.31,74.26,39.17,2.96,1.58,4.38,3.67,4.38,6.79,0,6.37-8.69,7.16-8.69,18.79Z"/></svg>