<svg id="Grupo_19" data-name="Grupo 19" xmlns="http://www.w3.org/2000/svg" width="35.694" height="30" viewBox="0 0 35.694 30">
  <path id="Trazado_35" data-name="Trazado 35" d="M16.279,1233.094l-2.366-1.3-.021-.011-12.563-6.626a1.849,1.849,0,0,0-1.722,0l-12.661,6.63-2.7,1.295c-.029.014-.057.029-.085.045A3.282,3.282,0,0,0-17.4,1236.8a3.18,3.18,0,0,0,3.209,2.329.4.4,0,0,1,.4.4v10.469a4.952,4.952,0,0,0,4.947,4.947H9.661a4.952,4.952,0,0,0,4.947-4.947v-10.469a.4.4,0,0,1,.409-.4,3.084,3.084,0,0,0,3.094-2.444A3.184,3.184,0,0,0,16.279,1233.094Zm-.79,3.02c-.048.22-.207.332-.486.332a3.083,3.083,0,0,0-3.079,3.08v10.469a2.266,2.266,0,0,1-2.263,2.263H3.3v-9.72H-2.617v9.72H-8.848a2.266,2.266,0,0,1-2.263-2.263v-10.469a3.083,3.083,0,0,0-3.079-3.08c-.527,0-.594-.251-.616-.334a.586.586,0,0,1,.269-.641l2.665-1.279.042-.021,12.294-6.438,12.165,6.416,2.394,1.318q.044.024.089.045C15.515,1235.695,15.521,1235.968,15.489,1236.114Z" transform="translate(17.507 -1224.94)" fill="#848484"/>
</svg>
